<mxfile host="app.diagrams.net" modified="2023-10-29T23:40:17.621Z" agent="Mozilla/5.0 (Windows NT 10.0; Win64; x64) AppleWebKit/537.36 (KHTML, like Gecko) Chrome/118.0.0.0 Safari/537.36" etag="a5iR7I2U3H9K6U7KzS53" version="22.0.8" type="device">
  <diagram name="Страница — 1" id="PT70_CYcPv-NNOxItSxv">
    <mxGraphModel dx="1050" dy="574" grid="1" gridSize="10" guides="1" tooltips="1" connect="1" arrows="1" fold="1" page="1" pageScale="1" pageWidth="827" pageHeight="1169" math="0" shadow="0">
      <root>
        <mxCell id="0" />
        <mxCell id="1" parent="0" />
        <mxCell id="0k0r966J7VI7oezdHhZW-1" value="&lt;font style=&quot;font-size: 14px;&quot;&gt;Спортсмен&lt;/font&gt;" style="swimlane;fontStyle=0;childLayout=stackLayout;horizontal=1;startSize=26;fillColor=none;horizontalStack=0;resizeParent=1;resizeParentMax=0;resizeLast=0;collapsible=1;marginBottom=0;whiteSpace=wrap;html=1;" parent="1" vertex="1">
          <mxGeometry x="80" y="80" width="150" height="110" as="geometry">
            <mxRectangle x="80" y="80" width="100" height="30" as="alternateBounds" />
          </mxGeometry>
        </mxCell>
        <mxCell id="0k0r966J7VI7oezdHhZW-2" value="&lt;font style=&quot;font-size: 14px;&quot;&gt;+ Ім&#39;я: String&lt;/font&gt;" style="text;strokeColor=none;fillColor=none;align=left;verticalAlign=top;spacingLeft=4;spacingRight=4;overflow=hidden;rotatable=0;points=[[0,0.5],[1,0.5]];portConstraint=eastwest;whiteSpace=wrap;html=1;" parent="0k0r966J7VI7oezdHhZW-1" vertex="1">
          <mxGeometry y="26" width="150" height="26" as="geometry" />
        </mxCell>
        <mxCell id="0k0r966J7VI7oezdHhZW-3" value="&lt;font style=&quot;font-size: 14px;&quot;&gt;+ Вік:&amp;nbsp; int&lt;/font&gt;" style="text;strokeColor=none;fillColor=none;align=left;verticalAlign=top;spacingLeft=4;spacingRight=4;overflow=hidden;rotatable=0;points=[[0,0.5],[1,0.5]];portConstraint=eastwest;whiteSpace=wrap;html=1;" parent="0k0r966J7VI7oezdHhZW-1" vertex="1">
          <mxGeometry y="52" width="150" height="26" as="geometry" />
        </mxCell>
        <mxCell id="0k0r966J7VI7oezdHhZW-4" value="&lt;font style=&quot;font-size: 14px;&quot;&gt;+Адреса: string&lt;/font&gt;" style="text;strokeColor=none;fillColor=none;align=left;verticalAlign=top;spacingLeft=4;spacingRight=4;overflow=hidden;rotatable=0;points=[[0,0.5],[1,0.5]];portConstraint=eastwest;whiteSpace=wrap;html=1;" parent="0k0r966J7VI7oezdHhZW-1" vertex="1">
          <mxGeometry y="78" width="150" height="32" as="geometry" />
        </mxCell>
        <mxCell id="0k0r966J7VI7oezdHhZW-8" value="&lt;p style=&quot;margin:0px;margin-top:4px;text-align:center;&quot;&gt;&lt;span style=&quot;font-size: 14px;&quot;&gt;Тренувальні&lt;/span&gt;&lt;/p&gt;&lt;p style=&quot;margin:0px;margin-top:4px;text-align:center;&quot;&gt;&lt;span style=&quot;font-size: 14px;&quot;&gt;програми&lt;/span&gt;&lt;/p&gt;&lt;hr size=&quot;1&quot;&gt;&lt;div style=&quot;height:2px;&quot;&gt;&amp;nbsp;&lt;font style=&quot;font-size: 14px;&quot;&gt;+ Назва: String&lt;/font&gt;&lt;/div&gt;&lt;div style=&quot;height:2px;&quot;&gt;&lt;font style=&quot;font-size: 14px;&quot;&gt;&lt;br&gt;&lt;/font&gt;&lt;/div&gt;&lt;div style=&quot;height:2px;&quot;&gt;&lt;font style=&quot;font-size: 14px;&quot;&gt;&lt;br&gt;&lt;/font&gt;&lt;/div&gt;&lt;div style=&quot;height:2px;&quot;&gt;&lt;font style=&quot;font-size: 14px;&quot;&gt;&lt;br&gt;&lt;/font&gt;&lt;/div&gt;&lt;div style=&quot;height:2px;&quot;&gt;&lt;font style=&quot;font-size: 14px;&quot;&gt;&lt;br&gt;&lt;/font&gt;&lt;/div&gt;&lt;div style=&quot;height:2px;&quot;&gt;&lt;font style=&quot;font-size: 14px;&quot;&gt;&lt;br&gt;&lt;/font&gt;&lt;/div&gt;&lt;div style=&quot;height:2px;&quot;&gt;&lt;font style=&quot;font-size: 14px;&quot;&gt;&lt;br&gt;&lt;/font&gt;&lt;/div&gt;&lt;div style=&quot;height:2px;&quot;&gt;&lt;font style=&quot;font-size: 14px;&quot;&gt;&lt;br&gt;&lt;/font&gt;&lt;/div&gt;&lt;div style=&quot;height:2px;&quot;&gt;&lt;font style=&quot;font-size: 14px;&quot;&gt;&lt;br&gt;&lt;/font&gt;&lt;/div&gt;&lt;div style=&quot;height:2px;&quot;&gt;&lt;font style=&quot;font-size: 14px;&quot;&gt;&lt;br&gt;&lt;/font&gt;&lt;/div&gt;&lt;div style=&quot;height:2px;&quot;&gt;&lt;font style=&quot;font-size: 14px;&quot;&gt;&amp;nbsp;+ План: String&lt;/font&gt;&lt;/div&gt;&lt;div style=&quot;height:2px;&quot;&gt;&lt;font style=&quot;font-size: 14px;&quot;&gt;&lt;br&gt;&lt;/font&gt;&lt;/div&gt;" style="verticalAlign=top;align=left;overflow=fill;fontSize=12;fontFamily=Helvetica;html=1;whiteSpace=wrap;" parent="1" vertex="1">
          <mxGeometry x="444" y="56" width="140" height="102" as="geometry" />
        </mxCell>
        <mxCell id="0k0r966J7VI7oezdHhZW-10" value="&lt;font style=&quot;font-size: 14px;&quot;&gt;&amp;nbsp; &amp;nbsp; &amp;nbsp;Переглядає&lt;/font&gt;" style="text;html=1;align=center;verticalAlign=middle;resizable=0;points=[];autosize=1;strokeColor=none;fillColor=none;" parent="1" vertex="1">
          <mxGeometry x="293.5" y="70" width="120" height="30" as="geometry" />
        </mxCell>
        <mxCell id="0k0r966J7VI7oezdHhZW-11" value="&lt;p style=&quot;margin: 6px 0px 0px; text-align: center; font-size: 14px;&quot;&gt;&lt;font style=&quot;font-size: 14px;&quot;&gt;Вибір тренувальної програми&lt;/font&gt;&lt;/p&gt;&lt;hr style=&quot;font-size: 14px;&quot;&gt;&lt;p style=&quot;margin: 0px 0px 0px 8px; font-size: 14px;&quot;&gt;&lt;font style=&quot;font-size: 14px;&quot;&gt;+ Дата: date&lt;br&gt;+ Тривалість: int&lt;/font&gt;&lt;/p&gt;" style="align=left;overflow=fill;html=1;dropTarget=0;whiteSpace=wrap;" parent="1" vertex="1">
          <mxGeometry x="745" y="180" width="180" height="90" as="geometry" />
        </mxCell>
        <mxCell id="0k0r966J7VI7oezdHhZW-13" value="&lt;font style=&quot;font-size: 14px;&quot;&gt;1&lt;/font&gt;" style="text;html=1;align=center;verticalAlign=middle;resizable=0;points=[];autosize=1;strokeColor=none;fillColor=none;" parent="1" vertex="1">
          <mxGeometry x="230" y="70" width="30" height="30" as="geometry" />
        </mxCell>
        <mxCell id="0k0r966J7VI7oezdHhZW-14" value="&lt;font style=&quot;font-size: 14px;&quot;&gt;*&lt;/font&gt;" style="text;html=1;align=center;verticalAlign=middle;resizable=0;points=[];autosize=1;strokeColor=none;fillColor=none;" parent="1" vertex="1">
          <mxGeometry x="414" y="86" width="30" height="30" as="geometry" />
        </mxCell>
        <mxCell id="0k0r966J7VI7oezdHhZW-19" value="1" style="text;html=1;align=center;verticalAlign=middle;resizable=0;points=[];autosize=1;strokeColor=none;fillColor=none;" parent="1" vertex="1">
          <mxGeometry x="584" y="110" width="30" height="30" as="geometry" />
        </mxCell>
        <mxCell id="0k0r966J7VI7oezdHhZW-20" value="1" style="text;html=1;align=center;verticalAlign=middle;resizable=0;points=[];autosize=1;strokeColor=none;fillColor=none;" parent="1" vertex="1">
          <mxGeometry x="700" y="160" width="30" height="30" as="geometry" />
        </mxCell>
        <mxCell id="0k0r966J7VI7oezdHhZW-21" value="&lt;p style=&quot;margin: 6px 0px 0px; text-align: center; font-size: 14px;&quot;&gt;&lt;font style=&quot;font-size: 14px;&quot;&gt;Сповіщення про тренувальну програму&lt;/font&gt;&lt;/p&gt;&lt;hr style=&quot;font-size: 14px;&quot;&gt;&lt;p style=&quot;margin: 0px 0px 0px 8px; font-size: 14px;&quot;&gt;&lt;font style=&quot;font-size: 14px;&quot;&gt;+ Дата: date&lt;br&gt;+ Статус: String&lt;/font&gt;&lt;/p&gt;" style="align=left;overflow=fill;html=1;dropTarget=0;whiteSpace=wrap;" parent="1" vertex="1">
          <mxGeometry x="425" y="200" width="180" height="90" as="geometry" />
        </mxCell>
        <mxCell id="0k0r966J7VI7oezdHhZW-22" value="&lt;font style=&quot;font-size: 14px;&quot;&gt;1&lt;/font&gt;" style="text;html=1;align=center;verticalAlign=middle;resizable=0;points=[];autosize=1;strokeColor=none;fillColor=none;" parent="1" vertex="1">
          <mxGeometry x="263.5" y="110" width="30" height="30" as="geometry" />
        </mxCell>
        <mxCell id="0k0r966J7VI7oezdHhZW-24" value="&lt;font style=&quot;font-size: 14px;&quot;&gt;Отримує&lt;/font&gt;" style="text;html=1;align=center;verticalAlign=middle;resizable=0;points=[];autosize=1;strokeColor=none;fillColor=none;" parent="1" vertex="1">
          <mxGeometry x="293.5" y="130" width="80" height="30" as="geometry" />
        </mxCell>
        <mxCell id="0k0r966J7VI7oezdHhZW-25" value="&lt;font style=&quot;font-size: 14px;&quot;&gt;*&lt;/font&gt;" style="text;html=1;align=center;verticalAlign=middle;resizable=0;points=[];autosize=1;strokeColor=none;fillColor=none;" parent="1" vertex="1">
          <mxGeometry x="385" y="200" width="30" height="30" as="geometry" />
        </mxCell>
        <mxCell id="0k0r966J7VI7oezdHhZW-28" value="&lt;p style=&quot;margin: 6px 0px 0px; text-align: center; font-size: 14px;&quot;&gt;Есперт&lt;/p&gt;&lt;hr style=&quot;font-size: 14px;&quot;&gt;&lt;p style=&quot;margin: 0px 0px 0px 8px; font-size: 14px;&quot;&gt;&lt;font style=&quot;font-size: 14px;&quot;&gt;+ Ім&#39;я: String&lt;br&gt;&lt;/font&gt;&lt;/p&gt;" style="align=left;overflow=fill;html=1;dropTarget=0;whiteSpace=wrap;" parent="1" vertex="1">
          <mxGeometry x="415" y="320" width="180" height="60" as="geometry" />
        </mxCell>
        <mxCell id="0k0r966J7VI7oezdHhZW-36" value="&lt;font style=&quot;font-size: 14px;&quot;&gt;1&lt;/font&gt;" style="text;html=1;align=center;verticalAlign=middle;resizable=0;points=[];autosize=1;strokeColor=none;fillColor=none;" parent="1" vertex="1">
          <mxGeometry x="240" y="120" width="30" height="30" as="geometry" />
        </mxCell>
        <mxCell id="0k0r966J7VI7oezdHhZW-37" value="&lt;span style=&quot;font-size: 14px;&quot;&gt;Взаємодіє&lt;/span&gt;" style="text;html=1;align=center;verticalAlign=middle;resizable=0;points=[];autosize=1;strokeColor=none;fillColor=none;" parent="1" vertex="1">
          <mxGeometry x="335" y="230" width="90" height="30" as="geometry" />
        </mxCell>
        <mxCell id="0k0r966J7VI7oezdHhZW-38" value="&lt;font style=&quot;font-size: 14px;&quot;&gt;*&lt;/font&gt;" style="text;html=1;align=center;verticalAlign=middle;resizable=0;points=[];autosize=1;strokeColor=none;fillColor=none;" parent="1" vertex="1">
          <mxGeometry x="222.5" y="365" width="30" height="30" as="geometry" />
        </mxCell>
        <mxCell id="0k0r966J7VI7oezdHhZW-40" value="&lt;font style=&quot;font-size: 14px;&quot;&gt;Отримує&lt;/font&gt;" style="text;html=1;align=center;verticalAlign=middle;resizable=0;points=[];autosize=1;strokeColor=none;fillColor=none;" parent="1" vertex="1">
          <mxGeometry x="620" y="240" width="80" height="30" as="geometry" />
        </mxCell>
        <mxCell id="0k0r966J7VI7oezdHhZW-42" value="" style="endArrow=diamondThin;endFill=0;endSize=24;html=1;rounded=0;entryX=1.167;entryY=0.013;entryDx=0;entryDy=0;entryPerimeter=0;" parent="1" edge="1">
          <mxGeometry width="160" relative="1" as="geometry">
            <mxPoint x="584" y="135.34925003177833" as="sourcePoint" />
            <mxPoint x="750.01" y="201.04" as="targetPoint" />
          </mxGeometry>
        </mxCell>
        <mxCell id="0k0r966J7VI7oezdHhZW-41" value="&lt;font style=&quot;font-size: 14px;&quot;&gt;1&lt;/font&gt;" style="text;html=1;align=center;verticalAlign=middle;resizable=0;points=[];autosize=1;strokeColor=none;fillColor=none;" parent="1" vertex="1">
          <mxGeometry x="715" y="200" width="30" height="30" as="geometry" />
        </mxCell>
        <mxCell id="0k0r966J7VI7oezdHhZW-44" value="&lt;p style=&quot;margin:0px;margin-top:4px;text-align:center;&quot;&gt;&lt;span style=&quot;font-size: 14px;&quot;&gt;Відповідь на&amp;nbsp;&lt;/span&gt;&lt;/p&gt;&lt;p style=&quot;margin:0px;margin-top:4px;text-align:center;&quot;&gt;&lt;font style=&quot;font-size: 14px;&quot;&gt;Online-повідомлення&lt;/font&gt;&lt;br&gt;&lt;/p&gt;&lt;hr size=&quot;1&quot;&gt;&lt;div style=&quot;height:2px;&quot;&gt;&amp;nbsp;&lt;font style=&quot;font-size: 14px;&quot;&gt;+ Дата: date&lt;/font&gt;&lt;/div&gt;&lt;div style=&quot;height:2px;&quot;&gt;&lt;font style=&quot;font-size: 14px;&quot;&gt;&lt;br&gt;&lt;/font&gt;&lt;/div&gt;&lt;div style=&quot;height:2px;&quot;&gt;&lt;font style=&quot;font-size: 14px;&quot;&gt;&lt;br&gt;&lt;/font&gt;&lt;/div&gt;&lt;div style=&quot;height:2px;&quot;&gt;&lt;font style=&quot;font-size: 14px;&quot;&gt;&lt;br&gt;&lt;/font&gt;&lt;/div&gt;&lt;div style=&quot;height:2px;&quot;&gt;&lt;font style=&quot;font-size: 14px;&quot;&gt;&lt;br&gt;&lt;/font&gt;&lt;/div&gt;&lt;div style=&quot;height:2px;&quot;&gt;&lt;font style=&quot;font-size: 14px;&quot;&gt;&lt;br&gt;&lt;/font&gt;&lt;/div&gt;&lt;div style=&quot;height:2px;&quot;&gt;&lt;font style=&quot;font-size: 14px;&quot;&gt;&lt;br&gt;&lt;/font&gt;&lt;/div&gt;&lt;div style=&quot;height:2px;&quot;&gt;&lt;font style=&quot;font-size: 14px;&quot;&gt;&lt;br&gt;&lt;/font&gt;&lt;/div&gt;&lt;div style=&quot;height:2px;&quot;&gt;&lt;font style=&quot;font-size: 14px;&quot;&gt;&lt;br&gt;&lt;/font&gt;&lt;/div&gt;&lt;div style=&quot;height:2px;&quot;&gt;&lt;font style=&quot;font-size: 14px;&quot;&gt;&lt;br&gt;&lt;/font&gt;&lt;/div&gt;&lt;div style=&quot;height:2px;&quot;&gt;&lt;font style=&quot;font-size: 14px;&quot;&gt;&amp;nbsp;+ Текст: String&lt;/font&gt;&lt;/div&gt;&lt;div style=&quot;height:2px;&quot;&gt;&lt;font style=&quot;font-size: 14px;&quot;&gt;&lt;br&gt;&lt;/font&gt;&lt;/div&gt;" style="verticalAlign=top;align=left;overflow=fill;fontSize=12;fontFamily=Helvetica;html=1;whiteSpace=wrap;" parent="1" vertex="1">
          <mxGeometry x="85" y="365" width="140" height="102" as="geometry" />
        </mxCell>
        <mxCell id="0k0r966J7VI7oezdHhZW-46" value="&lt;font style=&quot;font-size: 14px;&quot;&gt;*&lt;/font&gt;" style="text;html=1;align=center;verticalAlign=middle;resizable=0;points=[];autosize=1;strokeColor=none;fillColor=none;" parent="1" vertex="1">
          <mxGeometry x="399" y="290" width="30" height="30" as="geometry" />
        </mxCell>
        <mxCell id="0k0r966J7VI7oezdHhZW-48" value="&lt;font style=&quot;font-size: 14px;&quot;&gt;1&lt;/font&gt;" style="text;html=1;align=center;verticalAlign=middle;resizable=0;points=[];autosize=1;strokeColor=none;fillColor=none;" parent="1" vertex="1">
          <mxGeometry x="384" y="320" width="30" height="30" as="geometry" />
        </mxCell>
        <mxCell id="0k0r966J7VI7oezdHhZW-49" value="&lt;font style=&quot;font-size: 14px;&quot;&gt;Відповідає&lt;/font&gt;" style="text;html=1;align=center;verticalAlign=middle;resizable=0;points=[];autosize=1;strokeColor=none;fillColor=none;" parent="1" vertex="1">
          <mxGeometry x="270" y="335" width="90" height="30" as="geometry" />
        </mxCell>
        <mxCell id="0k0r966J7VI7oezdHhZW-51" value="&lt;font style=&quot;font-size: 14px;&quot;&gt;Отримує&lt;/font&gt;" style="text;html=1;align=center;verticalAlign=middle;resizable=0;points=[];autosize=1;strokeColor=none;fillColor=none;" parent="1" vertex="1">
          <mxGeometry x="145" y="270" width="80" height="30" as="geometry" />
        </mxCell>
        <mxCell id="0k0r966J7VI7oezdHhZW-52" value="&lt;font style=&quot;font-size: 14px;&quot;&gt;1&lt;/font&gt;" style="text;html=1;align=center;verticalAlign=middle;resizable=0;points=[];autosize=1;strokeColor=none;fillColor=none;" parent="1" vertex="1">
          <mxGeometry x="145" y="335" width="30" height="30" as="geometry" />
        </mxCell>
        <mxCell id="0k0r966J7VI7oezdHhZW-53" value="&lt;font style=&quot;font-size: 14px;&quot;&gt;*&lt;/font&gt;" style="text;html=1;align=center;verticalAlign=middle;resizable=0;points=[];autosize=1;strokeColor=none;fillColor=none;" parent="1" vertex="1">
          <mxGeometry x="145" y="190" width="30" height="30" as="geometry" />
        </mxCell>
        <mxCell id="x_3dui9MWgq3ZP0mCH6x-1" value="" style="endArrow=classic;html=1;rounded=0;" edge="1" parent="1" target="0k0r966J7VI7oezdHhZW-8">
          <mxGeometry width="50" height="50" relative="1" as="geometry">
            <mxPoint x="230" y="100" as="sourcePoint" />
            <mxPoint x="560" y="270" as="targetPoint" />
          </mxGeometry>
        </mxCell>
        <mxCell id="x_3dui9MWgq3ZP0mCH6x-2" value="" style="endArrow=classic;html=1;rounded=0;entryX=0.006;entryY=0.387;entryDx=0;entryDy=0;entryPerimeter=0;exitX=0;exitY=1;exitDx=0;exitDy=0;exitPerimeter=0;" edge="1" parent="1" source="0k0r966J7VI7oezdHhZW-13" target="0k0r966J7VI7oezdHhZW-21">
          <mxGeometry width="50" height="50" relative="1" as="geometry">
            <mxPoint x="230" y="100" as="sourcePoint" />
            <mxPoint x="280" y="50" as="targetPoint" />
          </mxGeometry>
        </mxCell>
        <mxCell id="x_3dui9MWgq3ZP0mCH6x-3" value="" style="endArrow=classic;html=1;rounded=0;exitX=1.021;exitY=-0.077;exitDx=0;exitDy=0;exitPerimeter=0;entryX=0;entryY=0.25;entryDx=0;entryDy=0;" edge="1" parent="1" source="0k0r966J7VI7oezdHhZW-3" target="0k0r966J7VI7oezdHhZW-28">
          <mxGeometry width="50" height="50" relative="1" as="geometry">
            <mxPoint x="229" y="99.99800000000003" as="sourcePoint" />
            <mxPoint x="414" y="345.61" as="targetPoint" />
          </mxGeometry>
        </mxCell>
        <mxCell id="x_3dui9MWgq3ZP0mCH6x-4" value="" style="endArrow=classic;html=1;rounded=0;entryX=1;entryY=0.25;entryDx=0;entryDy=0;exitX=0.008;exitY=0.393;exitDx=0;exitDy=0;exitPerimeter=0;" edge="1" parent="1" source="0k0r966J7VI7oezdHhZW-28" target="0k0r966J7VI7oezdHhZW-44">
          <mxGeometry width="50" height="50" relative="1" as="geometry">
            <mxPoint x="510" y="320" as="sourcePoint" />
            <mxPoint x="560" y="270" as="targetPoint" />
          </mxGeometry>
        </mxCell>
        <mxCell id="x_3dui9MWgq3ZP0mCH6x-5" value="" style="endArrow=classic;html=1;rounded=0;entryX=0.451;entryY=1.05;entryDx=0;entryDy=0;entryPerimeter=0;exitX=0.441;exitY=0.002;exitDx=0;exitDy=0;exitPerimeter=0;" edge="1" parent="1" source="0k0r966J7VI7oezdHhZW-44" target="0k0r966J7VI7oezdHhZW-4">
          <mxGeometry width="50" height="50" relative="1" as="geometry">
            <mxPoint x="148" y="360" as="sourcePoint" />
            <mxPoint x="560" y="270" as="targetPoint" />
          </mxGeometry>
        </mxCell>
        <mxCell id="x_3dui9MWgq3ZP0mCH6x-7" value="" style="endArrow=classic;html=1;rounded=0;exitX=0.98;exitY=0.84;exitDx=0;exitDy=0;exitPerimeter=0;entryX=0.99;entryY=0.38;entryDx=0;entryDy=0;entryPerimeter=0;" edge="1" parent="1" source="0k0r966J7VI7oezdHhZW-41" target="0k0r966J7VI7oezdHhZW-28">
          <mxGeometry width="50" height="50" relative="1" as="geometry">
            <mxPoint x="744" y="225" as="sourcePoint" />
            <mxPoint x="595" y="350" as="targetPoint" />
          </mxGeometry>
        </mxCell>
        <mxCell id="0k0r966J7VI7oezdHhZW-43" value="&lt;font style=&quot;font-size: 14px;&quot;&gt;*&lt;/font&gt;" style="text;html=1;align=center;verticalAlign=middle;resizable=0;points=[];autosize=1;strokeColor=none;fillColor=none;" parent="1" vertex="1">
          <mxGeometry x="595" y="305" width="30" height="30" as="geometry" />
        </mxCell>
      </root>
    </mxGraphModel>
  </diagram>
</mxfile>
